<mxfile host="app.diagrams.net" modified="2022-08-12T11:04:04.480Z" agent="5.0 (Windows NT 10.0; Win64; x64) AppleWebKit/537.36 (KHTML, like Gecko) Chrome/104.0.0.0 Safari/537.36" etag="g-CFprXrtGpKlxn-0Rdn" version="18.0.3" type="github">
  <diagram id="I19cCAetzlFQS34KMGv6" name="Page-1">
    <mxGraphModel dx="3570" dy="2057" grid="1" gridSize="10" guides="1" tooltips="1" connect="1" arrows="1" fold="1" page="1" pageScale="1" pageWidth="827" pageHeight="1169" math="0" shadow="0">
      <root>
        <mxCell id="0" />
        <mxCell id="1" parent="0" />
        <mxCell id="2TAsUPGaxT-rRpuEJa2o-104" value="TileTemplate" style="swimlane;fontStyle=1;align=center;verticalAlign=top;childLayout=stackLayout;horizontal=1;startSize=26;horizontalStack=0;resizeParent=1;resizeLast=0;collapsible=1;marginBottom=0;rounded=0;shadow=0;strokeWidth=1;fillColor=#e1d5e7;strokeColor=#9673a6;" vertex="1" parent="1">
          <mxGeometry x="700" y="400" width="160" height="138" as="geometry">
            <mxRectangle x="130" y="380" width="160" height="26" as="alternateBounds" />
          </mxGeometry>
        </mxCell>
        <mxCell id="2TAsUPGaxT-rRpuEJa2o-105" value="- fields: List&lt;Position&gt;" style="text;align=left;verticalAlign=top;spacingLeft=4;spacingRight=4;overflow=hidden;rotatable=0;points=[[0,0.5],[1,0.5]];portConstraint=eastwest;" vertex="1" parent="2TAsUPGaxT-rRpuEJa2o-104">
          <mxGeometry y="26" width="160" height="26" as="geometry" />
        </mxCell>
        <mxCell id="2TAsUPGaxT-rRpuEJa2o-106" value="- size: Size" style="text;align=left;verticalAlign=top;spacingLeft=4;spacingRight=4;overflow=hidden;rotatable=0;points=[[0,0.5],[1,0.5]];portConstraint=eastwest;" vertex="1" parent="2TAsUPGaxT-rRpuEJa2o-104">
          <mxGeometry y="52" width="160" height="26" as="geometry" />
        </mxCell>
        <mxCell id="2TAsUPGaxT-rRpuEJa2o-107" value="" style="line;html=1;strokeWidth=1;align=left;verticalAlign=middle;spacingTop=-1;spacingLeft=3;spacingRight=3;rotatable=0;labelPosition=right;points=[];portConstraint=eastwest;" vertex="1" parent="2TAsUPGaxT-rRpuEJa2o-104">
          <mxGeometry y="78" width="160" height="8" as="geometry" />
        </mxCell>
        <mxCell id="2TAsUPGaxT-rRpuEJa2o-108" value="getPositions(): List&lt;Position&gt;" style="text;align=left;verticalAlign=top;spacingLeft=4;spacingRight=4;overflow=hidden;rotatable=0;points=[[0,0.5],[1,0.5]];portConstraint=eastwest;fontStyle=0" vertex="1" parent="2TAsUPGaxT-rRpuEJa2o-104">
          <mxGeometry y="86" width="160" height="26" as="geometry" />
        </mxCell>
        <mxCell id="2TAsUPGaxT-rRpuEJa2o-109" value="getSize(): Size" style="text;align=left;verticalAlign=top;spacingLeft=4;spacingRight=4;overflow=hidden;rotatable=0;points=[[0,0.5],[1,0.5]];portConstraint=eastwest;fontStyle=0" vertex="1" parent="2TAsUPGaxT-rRpuEJa2o-104">
          <mxGeometry y="112" width="160" height="26" as="geometry" />
        </mxCell>
        <mxCell id="2TAsUPGaxT-rRpuEJa2o-110" value="Size" style="swimlane;fontStyle=1;align=center;verticalAlign=top;childLayout=stackLayout;horizontal=1;startSize=26;horizontalStack=0;resizeParent=1;resizeLast=0;collapsible=1;marginBottom=0;rounded=0;shadow=0;strokeWidth=1;fillColor=#e1d5e7;strokeColor=#9673a6;" vertex="1" parent="1">
          <mxGeometry x="260" y="640" width="160" height="138" as="geometry">
            <mxRectangle x="340" y="380" width="170" height="26" as="alternateBounds" />
          </mxGeometry>
        </mxCell>
        <mxCell id="2TAsUPGaxT-rRpuEJa2o-111" value="- height: int&#xa;" style="text;align=left;verticalAlign=top;spacingLeft=4;spacingRight=4;overflow=hidden;rotatable=0;points=[[0,0.5],[1,0.5]];portConstraint=eastwest;" vertex="1" parent="2TAsUPGaxT-rRpuEJa2o-110">
          <mxGeometry y="26" width="160" height="26" as="geometry" />
        </mxCell>
        <mxCell id="2TAsUPGaxT-rRpuEJa2o-112" value="- width: int" style="text;strokeColor=none;fillColor=none;align=left;verticalAlign=top;spacingLeft=4;spacingRight=4;overflow=hidden;rotatable=0;points=[[0,0.5],[1,0.5]];portConstraint=eastwest;" vertex="1" parent="2TAsUPGaxT-rRpuEJa2o-110">
          <mxGeometry y="52" width="160" height="26" as="geometry" />
        </mxCell>
        <mxCell id="2TAsUPGaxT-rRpuEJa2o-113" value="" style="line;html=1;strokeWidth=1;align=left;verticalAlign=middle;spacingTop=-1;spacingLeft=3;spacingRight=3;rotatable=0;labelPosition=right;points=[];portConstraint=eastwest;" vertex="1" parent="2TAsUPGaxT-rRpuEJa2o-110">
          <mxGeometry y="78" width="160" height="8" as="geometry" />
        </mxCell>
        <mxCell id="2TAsUPGaxT-rRpuEJa2o-114" value="+ getHeight(): int" style="text;strokeColor=none;fillColor=none;align=left;verticalAlign=top;spacingLeft=4;spacingRight=4;overflow=hidden;rotatable=0;points=[[0,0.5],[1,0.5]];portConstraint=eastwest;" vertex="1" parent="2TAsUPGaxT-rRpuEJa2o-110">
          <mxGeometry y="86" width="160" height="26" as="geometry" />
        </mxCell>
        <mxCell id="2TAsUPGaxT-rRpuEJa2o-115" value="+ getWidth(): int" style="text;strokeColor=none;fillColor=none;align=left;verticalAlign=top;spacingLeft=4;spacingRight=4;overflow=hidden;rotatable=0;points=[[0,0.5],[1,0.5]];portConstraint=eastwest;" vertex="1" parent="2TAsUPGaxT-rRpuEJa2o-110">
          <mxGeometry y="112" width="160" height="26" as="geometry" />
        </mxCell>
        <mxCell id="2TAsUPGaxT-rRpuEJa2o-116" value="Board" style="swimlane;fontStyle=1;align=center;verticalAlign=top;childLayout=stackLayout;horizontal=1;startSize=26;horizontalStack=0;resizeParent=1;resizeLast=0;collapsible=1;marginBottom=0;rounded=0;shadow=0;strokeWidth=1;fillColor=#e1d5e7;strokeColor=#9673a6;" vertex="1" parent="1">
          <mxGeometry x="530" y="630" width="360" height="294" as="geometry">
            <mxRectangle x="550" y="140" width="160" height="26" as="alternateBounds" />
          </mxGeometry>
        </mxCell>
        <mxCell id="2TAsUPGaxT-rRpuEJa2o-117" value="- size: Size" style="text;align=left;verticalAlign=top;spacingLeft=4;spacingRight=4;overflow=hidden;rotatable=0;points=[[0,0.5],[1,0.5]];portConstraint=eastwest;" vertex="1" parent="2TAsUPGaxT-rRpuEJa2o-116">
          <mxGeometry y="26" width="360" height="26" as="geometry" />
        </mxCell>
        <mxCell id="2TAsUPGaxT-rRpuEJa2o-118" value="- tile: Tile" style="text;align=left;verticalAlign=top;spacingLeft=4;spacingRight=4;overflow=hidden;rotatable=0;points=[[0,0.5],[1,0.5]];portConstraint=eastwest;rounded=0;shadow=0;html=0;" vertex="1" parent="2TAsUPGaxT-rRpuEJa2o-116">
          <mxGeometry y="52" width="360" height="26" as="geometry" />
        </mxCell>
        <mxCell id="2TAsUPGaxT-rRpuEJa2o-119" value="- fields: BoardField[][]" style="text;align=left;verticalAlign=top;spacingLeft=4;spacingRight=4;overflow=hidden;rotatable=0;points=[[0,0.5],[1,0.5]];portConstraint=eastwest;rounded=0;shadow=0;html=0;" vertex="1" parent="2TAsUPGaxT-rRpuEJa2o-116">
          <mxGeometry y="78" width="360" height="26" as="geometry" />
        </mxCell>
        <mxCell id="2TAsUPGaxT-rRpuEJa2o-120" value="" style="line;html=1;strokeWidth=1;align=left;verticalAlign=middle;spacingTop=-1;spacingLeft=3;spacingRight=3;rotatable=0;labelPosition=right;points=[];portConstraint=eastwest;" vertex="1" parent="2TAsUPGaxT-rRpuEJa2o-116">
          <mxGeometry y="104" width="360" height="8" as="geometry" />
        </mxCell>
        <mxCell id="2TAsUPGaxT-rRpuEJa2o-121" value="+ addTile(TileTemplate, Rotation, Position, Color): Tile" style="text;align=left;verticalAlign=top;spacingLeft=4;spacingRight=4;overflow=hidden;rotatable=0;points=[[0,0.5],[1,0.5]];portConstraint=eastwest;" vertex="1" parent="2TAsUPGaxT-rRpuEJa2o-116">
          <mxGeometry y="112" width="360" height="26" as="geometry" />
        </mxCell>
        <mxCell id="2TAsUPGaxT-rRpuEJa2o-122" value="+ getTile(Position): Tile" style="text;align=left;verticalAlign=top;spacingLeft=4;spacingRight=4;overflow=hidden;rotatable=0;points=[[0,0.5],[1,0.5]];portConstraint=eastwest;" vertex="1" parent="2TAsUPGaxT-rRpuEJa2o-116">
          <mxGeometry y="138" width="360" height="26" as="geometry" />
        </mxCell>
        <mxCell id="2TAsUPGaxT-rRpuEJa2o-123" value="+ moveTile(Tile): Tile" style="text;strokeColor=none;fillColor=none;align=left;verticalAlign=top;spacingLeft=4;spacingRight=4;overflow=hidden;rotatable=0;points=[[0,0.5],[1,0.5]];portConstraint=eastwest;" vertex="1" parent="2TAsUPGaxT-rRpuEJa2o-116">
          <mxGeometry y="164" width="360" height="26" as="geometry" />
        </mxCell>
        <mxCell id="2TAsUPGaxT-rRpuEJa2o-124" value="+ rotateTile(Tile): Tile" style="text;strokeColor=none;fillColor=none;align=left;verticalAlign=top;spacingLeft=4;spacingRight=4;overflow=hidden;rotatable=0;points=[[0,0.5],[1,0.5]];portConstraint=eastwest;" vertex="1" parent="2TAsUPGaxT-rRpuEJa2o-116">
          <mxGeometry y="190" width="360" height="26" as="geometry" />
        </mxCell>
        <mxCell id="2TAsUPGaxT-rRpuEJa2o-125" value="+ convertTileToBoardField(Tile): void" style="text;strokeColor=none;fillColor=none;align=left;verticalAlign=top;spacingLeft=4;spacingRight=4;overflow=hidden;rotatable=0;points=[[0,0.5],[1,0.5]];portConstraint=eastwest;" vertex="1" parent="2TAsUPGaxT-rRpuEJa2o-116">
          <mxGeometry y="216" width="360" height="26" as="geometry" />
        </mxCell>
        <mxCell id="2TAsUPGaxT-rRpuEJa2o-126" value="+ removeFullLines(): void" style="text;strokeColor=none;fillColor=none;align=left;verticalAlign=top;spacingLeft=4;spacingRight=4;overflow=hidden;rotatable=0;points=[[0,0.5],[1,0.5]];portConstraint=eastwest;" vertex="1" parent="2TAsUPGaxT-rRpuEJa2o-116">
          <mxGeometry y="242" width="360" height="26" as="geometry" />
        </mxCell>
        <mxCell id="2TAsUPGaxT-rRpuEJa2o-127" value="+ getFieldColor(Position): Color" style="text;strokeColor=none;fillColor=none;align=left;verticalAlign=top;spacingLeft=4;spacingRight=4;overflow=hidden;rotatable=0;points=[[0,0.5],[1,0.5]];portConstraint=eastwest;" vertex="1" parent="2TAsUPGaxT-rRpuEJa2o-116">
          <mxGeometry y="268" width="360" height="26" as="geometry" />
        </mxCell>
        <mxCell id="2TAsUPGaxT-rRpuEJa2o-128" value="Position" style="swimlane;fontStyle=1;align=center;verticalAlign=top;childLayout=stackLayout;horizontal=1;startSize=26;horizontalStack=0;resizeParent=1;resizeParentMax=0;resizeLast=0;collapsible=1;marginBottom=0;fillColor=#e1d5e7;strokeColor=#9673a6;" vertex="1" parent="1">
          <mxGeometry x="1000" y="290" width="160" height="138" as="geometry" />
        </mxCell>
        <mxCell id="2TAsUPGaxT-rRpuEJa2o-129" value="- column: int" style="text;strokeColor=none;fillColor=none;align=left;verticalAlign=top;spacingLeft=4;spacingRight=4;overflow=hidden;rotatable=0;points=[[0,0.5],[1,0.5]];portConstraint=eastwest;" vertex="1" parent="2TAsUPGaxT-rRpuEJa2o-128">
          <mxGeometry y="26" width="160" height="26" as="geometry" />
        </mxCell>
        <mxCell id="2TAsUPGaxT-rRpuEJa2o-130" value="- row: int" style="text;strokeColor=none;fillColor=none;align=left;verticalAlign=top;spacingLeft=4;spacingRight=4;overflow=hidden;rotatable=0;points=[[0,0.5],[1,0.5]];portConstraint=eastwest;" vertex="1" parent="2TAsUPGaxT-rRpuEJa2o-128">
          <mxGeometry y="52" width="160" height="26" as="geometry" />
        </mxCell>
        <mxCell id="2TAsUPGaxT-rRpuEJa2o-131" value="" style="line;strokeWidth=1;fillColor=none;align=left;verticalAlign=middle;spacingTop=-1;spacingLeft=3;spacingRight=3;rotatable=0;labelPosition=right;points=[];portConstraint=eastwest;" vertex="1" parent="2TAsUPGaxT-rRpuEJa2o-128">
          <mxGeometry y="78" width="160" height="8" as="geometry" />
        </mxCell>
        <mxCell id="2TAsUPGaxT-rRpuEJa2o-132" value="+ getColumn(): int" style="text;strokeColor=none;fillColor=none;align=left;verticalAlign=top;spacingLeft=4;spacingRight=4;overflow=hidden;rotatable=0;points=[[0,0.5],[1,0.5]];portConstraint=eastwest;" vertex="1" parent="2TAsUPGaxT-rRpuEJa2o-128">
          <mxGeometry y="86" width="160" height="26" as="geometry" />
        </mxCell>
        <mxCell id="2TAsUPGaxT-rRpuEJa2o-133" value="+ getRow(): int" style="text;strokeColor=none;fillColor=none;align=left;verticalAlign=top;spacingLeft=4;spacingRight=4;overflow=hidden;rotatable=0;points=[[0,0.5],[1,0.5]];portConstraint=eastwest;" vertex="1" parent="2TAsUPGaxT-rRpuEJa2o-128">
          <mxGeometry y="112" width="160" height="26" as="geometry" />
        </mxCell>
        <mxCell id="2TAsUPGaxT-rRpuEJa2o-134" value="" style="shape=image;html=1;verticalAlign=top;verticalLabelPosition=bottom;labelBackgroundColor=#ffffff;imageAspect=0;aspect=fixed;image=https://cdn1.iconfinder.com/data/icons/CrystalClear/128x128/apps/ksirtet.png" vertex="1" parent="1">
          <mxGeometry x="46" y="21" width="128" height="128" as="geometry" />
        </mxCell>
        <mxCell id="2TAsUPGaxT-rRpuEJa2o-135" value="TileField" style="swimlane;fontStyle=1;align=center;verticalAlign=top;childLayout=stackLayout;horizontal=1;startSize=26;horizontalStack=0;resizeParent=1;resizeLast=0;collapsible=1;marginBottom=0;rounded=0;shadow=0;strokeWidth=1;fillColor=#e1d5e7;strokeColor=#9673a6;" vertex="1" parent="1">
          <mxGeometry x="700" y="140" width="160" height="138" as="geometry">
            <mxRectangle x="130" y="380" width="160" height="26" as="alternateBounds" />
          </mxGeometry>
        </mxCell>
        <mxCell id="2TAsUPGaxT-rRpuEJa2o-136" value="- position: Position" style="text;align=left;verticalAlign=top;spacingLeft=4;spacingRight=4;overflow=hidden;rotatable=0;points=[[0,0.5],[1,0.5]];portConstraint=eastwest;" vertex="1" parent="2TAsUPGaxT-rRpuEJa2o-135">
          <mxGeometry y="26" width="160" height="26" as="geometry" />
        </mxCell>
        <mxCell id="2TAsUPGaxT-rRpuEJa2o-137" value="- anchor: boolean" style="text;strokeColor=none;fillColor=none;align=left;verticalAlign=top;spacingLeft=4;spacingRight=4;overflow=hidden;rotatable=0;points=[[0,0.5],[1,0.5]];portConstraint=eastwest;" vertex="1" parent="2TAsUPGaxT-rRpuEJa2o-135">
          <mxGeometry y="52" width="160" height="26" as="geometry" />
        </mxCell>
        <mxCell id="2TAsUPGaxT-rRpuEJa2o-138" value="" style="line;html=1;strokeWidth=1;align=left;verticalAlign=middle;spacingTop=-1;spacingLeft=3;spacingRight=3;rotatable=0;labelPosition=right;points=[];portConstraint=eastwest;" vertex="1" parent="2TAsUPGaxT-rRpuEJa2o-135">
          <mxGeometry y="78" width="160" height="8" as="geometry" />
        </mxCell>
        <mxCell id="2TAsUPGaxT-rRpuEJa2o-139" value="+ isAnchort(): boolean" style="text;align=left;verticalAlign=top;spacingLeft=4;spacingRight=4;overflow=hidden;rotatable=0;points=[[0,0.5],[1,0.5]];portConstraint=eastwest;fontStyle=4" vertex="1" parent="2TAsUPGaxT-rRpuEJa2o-135">
          <mxGeometry y="86" width="160" height="26" as="geometry" />
        </mxCell>
        <mxCell id="2TAsUPGaxT-rRpuEJa2o-140" value="+ getPosition(): Position" style="text;align=left;verticalAlign=top;spacingLeft=4;spacingRight=4;overflow=hidden;rotatable=0;points=[[0,0.5],[1,0.5]];portConstraint=eastwest;" vertex="1" parent="2TAsUPGaxT-rRpuEJa2o-135">
          <mxGeometry y="112" width="160" height="26" as="geometry" />
        </mxCell>
        <mxCell id="2TAsUPGaxT-rRpuEJa2o-141" value="Color" style="swimlane;fontStyle=1;align=center;verticalAlign=top;childLayout=stackLayout;horizontal=1;startSize=26;horizontalStack=0;resizeParent=1;resizeLast=0;collapsible=1;marginBottom=0;rounded=0;shadow=0;strokeWidth=1;fillColor=#e1d5e7;strokeColor=#9673a6;" vertex="1" parent="1">
          <mxGeometry x="1220" y="662" width="160" height="216" as="geometry">
            <mxRectangle x="340" y="380" width="170" height="26" as="alternateBounds" />
          </mxGeometry>
        </mxCell>
        <mxCell id="2TAsUPGaxT-rRpuEJa2o-142" value="- red: int&#xa;" style="text;align=left;verticalAlign=top;spacingLeft=4;spacingRight=4;overflow=hidden;rotatable=0;points=[[0,0.5],[1,0.5]];portConstraint=eastwest;" vertex="1" parent="2TAsUPGaxT-rRpuEJa2o-141">
          <mxGeometry y="26" width="160" height="26" as="geometry" />
        </mxCell>
        <mxCell id="2TAsUPGaxT-rRpuEJa2o-143" value="- green: int" style="text;strokeColor=none;fillColor=none;align=left;verticalAlign=top;spacingLeft=4;spacingRight=4;overflow=hidden;rotatable=0;points=[[0,0.5],[1,0.5]];portConstraint=eastwest;" vertex="1" parent="2TAsUPGaxT-rRpuEJa2o-141">
          <mxGeometry y="52" width="160" height="26" as="geometry" />
        </mxCell>
        <mxCell id="2TAsUPGaxT-rRpuEJa2o-144" value="- blue: int" style="text;strokeColor=none;fillColor=none;align=left;verticalAlign=top;spacingLeft=4;spacingRight=4;overflow=hidden;rotatable=0;points=[[0,0.5],[1,0.5]];portConstraint=eastwest;" vertex="1" parent="2TAsUPGaxT-rRpuEJa2o-141">
          <mxGeometry y="78" width="160" height="26" as="geometry" />
        </mxCell>
        <mxCell id="2TAsUPGaxT-rRpuEJa2o-145" value="" style="line;html=1;strokeWidth=1;align=left;verticalAlign=middle;spacingTop=-1;spacingLeft=3;spacingRight=3;rotatable=0;labelPosition=right;points=[];portConstraint=eastwest;" vertex="1" parent="2TAsUPGaxT-rRpuEJa2o-141">
          <mxGeometry y="104" width="160" height="8" as="geometry" />
        </mxCell>
        <mxCell id="2TAsUPGaxT-rRpuEJa2o-146" value="+ getRed(): int" style="text;strokeColor=none;fillColor=none;align=left;verticalAlign=top;spacingLeft=4;spacingRight=4;overflow=hidden;rotatable=0;points=[[0,0.5],[1,0.5]];portConstraint=eastwest;" vertex="1" parent="2TAsUPGaxT-rRpuEJa2o-141">
          <mxGeometry y="112" width="160" height="26" as="geometry" />
        </mxCell>
        <mxCell id="2TAsUPGaxT-rRpuEJa2o-147" value="+ getGreen(): int" style="text;strokeColor=none;fillColor=none;align=left;verticalAlign=top;spacingLeft=4;spacingRight=4;overflow=hidden;rotatable=0;points=[[0,0.5],[1,0.5]];portConstraint=eastwest;" vertex="1" parent="2TAsUPGaxT-rRpuEJa2o-141">
          <mxGeometry y="138" width="160" height="26" as="geometry" />
        </mxCell>
        <mxCell id="2TAsUPGaxT-rRpuEJa2o-148" value="+ getBlue(): int" style="text;strokeColor=none;fillColor=none;align=left;verticalAlign=top;spacingLeft=4;spacingRight=4;overflow=hidden;rotatable=0;points=[[0,0.5],[1,0.5]];portConstraint=eastwest;" vertex="1" parent="2TAsUPGaxT-rRpuEJa2o-141">
          <mxGeometry y="164" width="160" height="26" as="geometry" />
        </mxCell>
        <mxCell id="2TAsUPGaxT-rRpuEJa2o-149" value="+ getRGB(): int" style="text;strokeColor=none;fillColor=none;align=left;verticalAlign=top;spacingLeft=4;spacingRight=4;overflow=hidden;rotatable=0;points=[[0,0.5],[1,0.5]];portConstraint=eastwest;" vertex="1" parent="2TAsUPGaxT-rRpuEJa2o-141">
          <mxGeometry y="190" width="160" height="26" as="geometry" />
        </mxCell>
        <mxCell id="2TAsUPGaxT-rRpuEJa2o-150" value="Tile" style="swimlane;fontStyle=1;align=center;verticalAlign=top;childLayout=stackLayout;horizontal=1;startSize=26;horizontalStack=0;resizeParent=1;resizeLast=0;collapsible=1;marginBottom=0;rounded=0;shadow=0;strokeWidth=1;fillColor=#e1d5e7;strokeColor=#9673a6;" vertex="1" parent="1">
          <mxGeometry x="1000" y="703" width="160" height="160" as="geometry">
            <mxRectangle x="130" y="380" width="160" height="26" as="alternateBounds" />
          </mxGeometry>
        </mxCell>
        <mxCell id="2TAsUPGaxT-rRpuEJa2o-151" value="- fields: List&lt;Position&gt;" style="text;align=left;verticalAlign=top;spacingLeft=4;spacingRight=4;overflow=hidden;rotatable=0;points=[[0,0.5],[1,0.5]];portConstraint=eastwest;" vertex="1" parent="2TAsUPGaxT-rRpuEJa2o-150">
          <mxGeometry y="26" width="160" height="26" as="geometry" />
        </mxCell>
        <mxCell id="2TAsUPGaxT-rRpuEJa2o-152" value="- color: Color" style="text;strokeColor=none;fillColor=none;align=left;verticalAlign=top;spacingLeft=4;spacingRight=4;overflow=hidden;rotatable=0;points=[[0,0.5],[1,0.5]];portConstraint=eastwest;" vertex="1" parent="2TAsUPGaxT-rRpuEJa2o-150">
          <mxGeometry y="52" width="160" height="26" as="geometry" />
        </mxCell>
        <mxCell id="2TAsUPGaxT-rRpuEJa2o-153" value="- rotation: Rotation" style="text;strokeColor=none;fillColor=none;align=left;verticalAlign=top;spacingLeft=4;spacingRight=4;overflow=hidden;rotatable=0;points=[[0,0.5],[1,0.5]];portConstraint=eastwest;" vertex="1" parent="2TAsUPGaxT-rRpuEJa2o-150">
          <mxGeometry y="78" width="160" height="26" as="geometry" />
        </mxCell>
        <mxCell id="2TAsUPGaxT-rRpuEJa2o-154" value="" style="line;html=1;strokeWidth=1;align=left;verticalAlign=middle;spacingTop=-1;spacingLeft=3;spacingRight=3;rotatable=0;labelPosition=right;points=[];portConstraint=eastwest;" vertex="1" parent="2TAsUPGaxT-rRpuEJa2o-150">
          <mxGeometry y="104" width="160" height="8" as="geometry" />
        </mxCell>
        <mxCell id="2TAsUPGaxT-rRpuEJa2o-155" value="+ getPositions(): List&lt;Position&gt;" style="text;align=left;verticalAlign=top;spacingLeft=4;spacingRight=4;overflow=hidden;rotatable=0;points=[[0,0.5],[1,0.5]];portConstraint=eastwest;fontStyle=0" vertex="1" parent="2TAsUPGaxT-rRpuEJa2o-150">
          <mxGeometry y="112" width="160" height="26" as="geometry" />
        </mxCell>
        <mxCell id="2TAsUPGaxT-rRpuEJa2o-156" value="+ getColor(): Color&#xa;" style="text;align=left;verticalAlign=top;spacingLeft=4;spacingRight=4;overflow=hidden;rotatable=0;points=[[0,0.5],[1,0.5]];portConstraint=eastwest;" vertex="1" parent="2TAsUPGaxT-rRpuEJa2o-150">
          <mxGeometry y="138" width="160" height="22" as="geometry" />
        </mxCell>
        <mxCell id="2TAsUPGaxT-rRpuEJa2o-157" value="BoardField" style="swimlane;fontStyle=1;align=center;verticalAlign=top;childLayout=stackLayout;horizontal=1;startSize=26;horizontalStack=0;resizeParent=1;resizeLast=0;collapsible=1;marginBottom=0;rounded=0;shadow=0;strokeWidth=1;fillColor=#e1d5e7;strokeColor=#9673a6;" vertex="1" parent="1">
          <mxGeometry x="480" y="410" width="160" height="138" as="geometry">
            <mxRectangle x="130" y="380" width="160" height="26" as="alternateBounds" />
          </mxGeometry>
        </mxCell>
        <mxCell id="2TAsUPGaxT-rRpuEJa2o-158" value="- position: Position" style="text;align=left;verticalAlign=top;spacingLeft=4;spacingRight=4;overflow=hidden;rotatable=0;points=[[0,0.5],[1,0.5]];portConstraint=eastwest;" vertex="1" parent="2TAsUPGaxT-rRpuEJa2o-157">
          <mxGeometry y="26" width="160" height="26" as="geometry" />
        </mxCell>
        <mxCell id="2TAsUPGaxT-rRpuEJa2o-159" value="- color: Color" style="text;strokeColor=none;fillColor=none;align=left;verticalAlign=top;spacingLeft=4;spacingRight=4;overflow=hidden;rotatable=0;points=[[0,0.5],[1,0.5]];portConstraint=eastwest;" vertex="1" parent="2TAsUPGaxT-rRpuEJa2o-157">
          <mxGeometry y="52" width="160" height="26" as="geometry" />
        </mxCell>
        <mxCell id="2TAsUPGaxT-rRpuEJa2o-160" value="" style="line;html=1;strokeWidth=1;align=left;verticalAlign=middle;spacingTop=-1;spacingLeft=3;spacingRight=3;rotatable=0;labelPosition=right;points=[];portConstraint=eastwest;" vertex="1" parent="2TAsUPGaxT-rRpuEJa2o-157">
          <mxGeometry y="78" width="160" height="8" as="geometry" />
        </mxCell>
        <mxCell id="2TAsUPGaxT-rRpuEJa2o-161" value="+ getColor(): Color" style="text;align=left;verticalAlign=top;spacingLeft=4;spacingRight=4;overflow=hidden;rotatable=0;points=[[0,0.5],[1,0.5]];portConstraint=eastwest;fontStyle=4" vertex="1" parent="2TAsUPGaxT-rRpuEJa2o-157">
          <mxGeometry y="86" width="160" height="26" as="geometry" />
        </mxCell>
        <mxCell id="2TAsUPGaxT-rRpuEJa2o-162" value="+ getPosition(): Position" style="text;align=left;verticalAlign=top;spacingLeft=4;spacingRight=4;overflow=hidden;rotatable=0;points=[[0,0.5],[1,0.5]];portConstraint=eastwest;" vertex="1" parent="2TAsUPGaxT-rRpuEJa2o-157">
          <mxGeometry y="112" width="160" height="26" as="geometry" />
        </mxCell>
        <mxCell id="2TAsUPGaxT-rRpuEJa2o-163" value="Use" style="endArrow=open;endSize=12;dashed=1;html=1;rounded=0;edgeStyle=elbowEdgeStyle;elbow=vertical;" edge="1" parent="1" source="2TAsUPGaxT-rRpuEJa2o-116" target="2TAsUPGaxT-rRpuEJa2o-110">
          <mxGeometry width="160" relative="1" as="geometry">
            <mxPoint x="640" y="1010" as="sourcePoint" />
            <mxPoint x="800" y="1010" as="targetPoint" />
            <Array as="points">
              <mxPoint x="430" y="700" />
              <mxPoint x="1030" y="650" />
            </Array>
          </mxGeometry>
        </mxCell>
        <mxCell id="2TAsUPGaxT-rRpuEJa2o-164" value="Use" style="endArrow=open;endSize=12;dashed=1;html=1;rounded=0;entryX=0;entryY=0.5;entryDx=0;entryDy=0;" edge="1" parent="1" source="2TAsUPGaxT-rRpuEJa2o-116" target="2TAsUPGaxT-rRpuEJa2o-152">
          <mxGeometry width="160" relative="1" as="geometry">
            <mxPoint x="720" y="960" as="sourcePoint" />
            <mxPoint x="720" y="1150" as="targetPoint" />
          </mxGeometry>
        </mxCell>
        <mxCell id="2TAsUPGaxT-rRpuEJa2o-165" value="Use" style="endArrow=open;endSize=12;dashed=1;html=1;rounded=0;edgeStyle=elbowEdgeStyle;elbow=vertical;" edge="1" parent="1" source="2TAsUPGaxT-rRpuEJa2o-150" target="2TAsUPGaxT-rRpuEJa2o-141">
          <mxGeometry width="160" relative="1" as="geometry">
            <mxPoint x="730" y="970" as="sourcePoint" />
            <mxPoint x="730" y="1160" as="targetPoint" />
          </mxGeometry>
        </mxCell>
        <mxCell id="2TAsUPGaxT-rRpuEJa2o-166" value="Use" style="endArrow=open;endSize=12;dashed=1;html=1;rounded=0;edgeStyle=elbowEdgeStyle;elbow=vertical;" edge="1" parent="1" source="2TAsUPGaxT-rRpuEJa2o-150" target="2TAsUPGaxT-rRpuEJa2o-128">
          <mxGeometry width="160" relative="1" as="geometry">
            <mxPoint x="740" y="980" as="sourcePoint" />
            <mxPoint x="740" y="1170" as="targetPoint" />
          </mxGeometry>
        </mxCell>
        <mxCell id="2TAsUPGaxT-rRpuEJa2o-167" value="Use" style="endArrow=open;endSize=12;dashed=1;html=1;rounded=0;edgeStyle=elbowEdgeStyle;elbow=vertical;" edge="1" parent="1" source="2TAsUPGaxT-rRpuEJa2o-116" target="2TAsUPGaxT-rRpuEJa2o-157">
          <mxGeometry width="160" relative="1" as="geometry">
            <mxPoint x="1250" y="800" as="sourcePoint" />
            <mxPoint x="1360" y="800" as="targetPoint" />
            <Array as="points">
              <mxPoint x="560" y="600" />
              <mxPoint x="650" y="580" />
            </Array>
          </mxGeometry>
        </mxCell>
        <mxCell id="2TAsUPGaxT-rRpuEJa2o-168" value="Use" style="endArrow=open;endSize=12;dashed=1;html=1;rounded=0;edgeStyle=elbowEdgeStyle;elbow=vertical;jumpStyle=gap;jumpSize=15;" edge="1" parent="1" source="2TAsUPGaxT-rRpuEJa2o-116" target="2TAsUPGaxT-rRpuEJa2o-104">
          <mxGeometry width="160" relative="1" as="geometry">
            <mxPoint x="610" y="645" as="sourcePoint" />
            <mxPoint x="720" y="468" as="targetPoint" />
            <Array as="points">
              <mxPoint x="780" y="470" />
            </Array>
          </mxGeometry>
        </mxCell>
        <mxCell id="2TAsUPGaxT-rRpuEJa2o-169" value="Use" style="endArrow=open;endSize=12;dashed=1;html=1;rounded=0;edgeStyle=elbowEdgeStyle;elbow=vertical;" edge="1" parent="1" source="2TAsUPGaxT-rRpuEJa2o-104" target="2TAsUPGaxT-rRpuEJa2o-135">
          <mxGeometry width="160" relative="1" as="geometry">
            <mxPoint x="390" y="1160" as="sourcePoint" />
            <mxPoint x="110" y="1160" as="targetPoint" />
          </mxGeometry>
        </mxCell>
        <mxCell id="2TAsUPGaxT-rRpuEJa2o-170" value="Use" style="endArrow=open;endSize=12;dashed=1;html=1;rounded=0;edgeStyle=elbowEdgeStyle;elbow=vertical;" edge="1" parent="1" source="2TAsUPGaxT-rRpuEJa2o-135" target="2TAsUPGaxT-rRpuEJa2o-128">
          <mxGeometry width="160" relative="1" as="geometry">
            <mxPoint x="180" y="880" as="sourcePoint" />
            <mxPoint x="180" y="940" as="targetPoint" />
            <Array as="points">
              <mxPoint x="1070" y="240" />
              <mxPoint x="1050" y="200" />
              <mxPoint x="660" y="1140" />
            </Array>
          </mxGeometry>
        </mxCell>
        <mxCell id="2TAsUPGaxT-rRpuEJa2o-171" value="The Game" style="text;html=1;strokeColor=none;fillColor=none;align=center;verticalAlign=middle;whiteSpace=wrap;rounded=0;fontStyle=1;fontSize=30;" vertex="1" parent="1">
          <mxGeometry x="20" y="160" width="180" height="30" as="geometry" />
        </mxCell>
        <mxCell id="2TAsUPGaxT-rRpuEJa2o-172" value="Use" style="endArrow=open;endSize=12;dashed=1;html=1;rounded=0;edgeStyle=elbowEdgeStyle;elbow=vertical;" edge="1" parent="1" source="2TAsUPGaxT-rRpuEJa2o-157" target="2TAsUPGaxT-rRpuEJa2o-173">
          <mxGeometry width="160" relative="1" as="geometry">
            <mxPoint x="570" y="740" as="sourcePoint" />
            <mxPoint x="570" y="558" as="targetPoint" />
            <Array as="points">
              <mxPoint x="560" y="390" />
              <mxPoint x="570" y="390" />
              <mxPoint x="590" y="390" />
              <mxPoint x="660" y="690" />
            </Array>
          </mxGeometry>
        </mxCell>
        <mxCell id="2TAsUPGaxT-rRpuEJa2o-173" value="Position" style="rounded=0;whiteSpace=wrap;html=1;fontSize=12;fontStyle=1;fillColor=#e1d5e7;strokeColor=#9673a6;" vertex="1" parent="1">
          <mxGeometry x="505" y="318" width="110" height="29" as="geometry" />
        </mxCell>
        <mxCell id="2TAsUPGaxT-rRpuEJa2o-174" value="&lt;&lt;BoardRenderer&gt;&gt;" style="swimlane;fontStyle=2;align=center;verticalAlign=top;childLayout=stackLayout;horizontal=1;startSize=26;horizontalStack=0;resizeParent=1;resizeLast=0;collapsible=1;marginBottom=0;rounded=0;shadow=0;strokeWidth=1;fillColor=#fff2cc;strokeColor=#d6b656;" vertex="1" parent="1">
          <mxGeometry x="600" y="1240" width="210" height="100" as="geometry">
            <mxRectangle x="550" y="140" width="160" height="26" as="alternateBounds" />
          </mxGeometry>
        </mxCell>
        <mxCell id="2TAsUPGaxT-rRpuEJa2o-175" value="+ render(RenderData): void" style="text;align=left;verticalAlign=top;spacingLeft=4;spacingRight=4;overflow=hidden;rotatable=0;points=[[0,0.5],[1,0.5]];portConstraint=eastwest;" vertex="1" parent="2TAsUPGaxT-rRpuEJa2o-174">
          <mxGeometry y="26" width="210" height="26" as="geometry" />
        </mxCell>
        <mxCell id="2TAsUPGaxT-rRpuEJa2o-176" value="ASCIIRenderer" style="swimlane;fontStyle=1;align=center;verticalAlign=top;childLayout=stackLayout;horizontal=1;startSize=26;horizontalStack=0;resizeParent=1;resizeLast=0;collapsible=1;marginBottom=0;rounded=0;shadow=0;strokeWidth=1;fillColor=#fff2cc;strokeColor=#d6b656;" vertex="1" parent="1">
          <mxGeometry x="830" y="1430" width="160" height="134" as="geometry">
            <mxRectangle x="130" y="380" width="160" height="26" as="alternateBounds" />
          </mxGeometry>
        </mxCell>
        <mxCell id="2TAsUPGaxT-rRpuEJa2o-177" value="- size: Size" style="text;align=left;verticalAlign=top;spacingLeft=4;spacingRight=4;overflow=hidden;rotatable=0;points=[[0,0.5],[1,0.5]];portConstraint=eastwest;rounded=0;shadow=0;html=0;" vertex="1" parent="2TAsUPGaxT-rRpuEJa2o-176">
          <mxGeometry y="26" width="160" height="26" as="geometry" />
        </mxCell>
        <mxCell id="2TAsUPGaxT-rRpuEJa2o-178" value="" style="line;html=1;strokeWidth=1;align=left;verticalAlign=middle;spacingTop=-1;spacingLeft=3;spacingRight=3;rotatable=0;labelPosition=right;points=[];portConstraint=eastwest;" vertex="1" parent="2TAsUPGaxT-rRpuEJa2o-176">
          <mxGeometry y="52" width="160" height="8" as="geometry" />
        </mxCell>
        <mxCell id="2TAsUPGaxT-rRpuEJa2o-179" value="+ render(RenderData): void" style="text;align=left;verticalAlign=top;spacingLeft=4;spacingRight=4;overflow=hidden;rotatable=0;points=[[0,0.5],[1,0.5]];portConstraint=eastwest;" vertex="1" parent="2TAsUPGaxT-rRpuEJa2o-176">
          <mxGeometry y="60" width="160" height="26" as="geometry" />
        </mxCell>
        <mxCell id="2TAsUPGaxT-rRpuEJa2o-180" value="+ getSize(): Size" style="text;align=left;verticalAlign=top;spacingLeft=4;spacingRight=4;overflow=hidden;rotatable=0;points=[[0,0.5],[1,0.5]];portConstraint=eastwest;" vertex="1" parent="2TAsUPGaxT-rRpuEJa2o-176">
          <mxGeometry y="86" width="160" height="26" as="geometry" />
        </mxCell>
        <mxCell id="2TAsUPGaxT-rRpuEJa2o-181" value="" style="endArrow=block;dashed=1;endFill=0;endSize=12;html=1;rounded=0;fontSize=12;elbow=vertical;jumpStyle=gap;jumpSize=15;edgeStyle=elbowEdgeStyle;" edge="1" parent="1" source="2TAsUPGaxT-rRpuEJa2o-176" target="2TAsUPGaxT-rRpuEJa2o-174">
          <mxGeometry width="160" relative="1" as="geometry">
            <mxPoint x="910" y="1360" as="sourcePoint" />
            <mxPoint x="880" y="1560" as="targetPoint" />
            <Array as="points">
              <mxPoint x="780" y="1380" />
            </Array>
          </mxGeometry>
        </mxCell>
        <mxCell id="2TAsUPGaxT-rRpuEJa2o-182" value="SwingRenderer" style="swimlane;fontStyle=1;align=center;verticalAlign=top;childLayout=stackLayout;horizontal=1;startSize=26;horizontalStack=0;resizeParent=1;resizeLast=0;collapsible=1;marginBottom=0;rounded=0;shadow=0;strokeWidth=1;fillColor=#fff2cc;strokeColor=#d6b656;" vertex="1" parent="1">
          <mxGeometry x="625" y="1427" width="160" height="134" as="geometry">
            <mxRectangle x="130" y="380" width="160" height="26" as="alternateBounds" />
          </mxGeometry>
        </mxCell>
        <mxCell id="2TAsUPGaxT-rRpuEJa2o-183" value="+ render(RenderData): void" style="text;align=left;verticalAlign=top;spacingLeft=4;spacingRight=4;overflow=hidden;rotatable=0;points=[[0,0.5],[1,0.5]];portConstraint=eastwest;" vertex="1" parent="2TAsUPGaxT-rRpuEJa2o-182">
          <mxGeometry y="26" width="160" height="26" as="geometry" />
        </mxCell>
        <mxCell id="2TAsUPGaxT-rRpuEJa2o-184" value="" style="endArrow=block;dashed=1;endFill=0;endSize=12;html=1;rounded=0;fontSize=12;elbow=vertical;jumpStyle=gap;jumpSize=15;edgeStyle=elbowEdgeStyle;" edge="1" parent="1" source="2TAsUPGaxT-rRpuEJa2o-182" target="2TAsUPGaxT-rRpuEJa2o-174">
          <mxGeometry width="160" relative="1" as="geometry">
            <mxPoint x="940" y="1370" as="sourcePoint" />
            <mxPoint x="820" y="1370" as="targetPoint" />
            <Array as="points">
              <mxPoint x="710" y="1350" />
              <mxPoint x="710" y="1380" />
              <mxPoint x="740" y="1430" />
              <mxPoint x="890" y="1550" />
            </Array>
          </mxGeometry>
        </mxCell>
        <mxCell id="2TAsUPGaxT-rRpuEJa2o-185" value="ArduinoRenderer" style="swimlane;fontStyle=1;align=center;verticalAlign=top;childLayout=stackLayout;horizontal=1;startSize=26;horizontalStack=0;resizeParent=1;resizeLast=0;collapsible=1;marginBottom=0;rounded=0;shadow=0;strokeWidth=1;fillColor=#fff2cc;strokeColor=#d6b656;" vertex="1" parent="1">
          <mxGeometry x="430" y="1427" width="160" height="134" as="geometry">
            <mxRectangle x="130" y="380" width="160" height="26" as="alternateBounds" />
          </mxGeometry>
        </mxCell>
        <mxCell id="2TAsUPGaxT-rRpuEJa2o-186" value="+ render(RenderData): void" style="text;align=left;verticalAlign=top;spacingLeft=4;spacingRight=4;overflow=hidden;rotatable=0;points=[[0,0.5],[1,0.5]];portConstraint=eastwest;" vertex="1" parent="2TAsUPGaxT-rRpuEJa2o-185">
          <mxGeometry y="26" width="160" height="26" as="geometry" />
        </mxCell>
        <mxCell id="2TAsUPGaxT-rRpuEJa2o-187" value="" style="endArrow=block;dashed=1;endFill=0;endSize=12;html=1;rounded=0;fontSize=12;elbow=vertical;jumpStyle=gap;jumpSize=15;entryX=0.25;entryY=1;entryDx=0;entryDy=0;edgeStyle=elbowEdgeStyle;" edge="1" parent="1" source="2TAsUPGaxT-rRpuEJa2o-185" target="2TAsUPGaxT-rRpuEJa2o-174">
          <mxGeometry width="160" relative="1" as="geometry">
            <mxPoint x="940" y="1560" as="sourcePoint" />
            <mxPoint x="767.5" y="1420" as="targetPoint" />
            <Array as="points">
              <mxPoint x="630" y="1380" />
              <mxPoint x="520" y="1370" />
              <mxPoint x="880" y="1710" />
              <mxPoint x="900" y="1560" />
            </Array>
          </mxGeometry>
        </mxCell>
        <mxCell id="2TAsUPGaxT-rRpuEJa2o-188" value="GameEngine" style="swimlane;fontStyle=1;align=center;verticalAlign=top;childLayout=stackLayout;horizontal=1;startSize=26;horizontalStack=0;resizeParent=1;resizeLast=0;collapsible=1;marginBottom=0;rounded=0;shadow=0;strokeWidth=1;fillColor=#dae8fc;strokeColor=#6c8ebf;" vertex="1" parent="1">
          <mxGeometry x="600" y="1000" width="210" height="100" as="geometry">
            <mxRectangle x="550" y="140" width="160" height="26" as="alternateBounds" />
          </mxGeometry>
        </mxCell>
        <mxCell id="2TAsUPGaxT-rRpuEJa2o-189" value="TBD" style="text;align=left;verticalAlign=top;spacingLeft=4;spacingRight=4;overflow=hidden;rotatable=0;points=[[0,0.5],[1,0.5]];portConstraint=eastwest;fontStyle=3" vertex="1" parent="2TAsUPGaxT-rRpuEJa2o-188">
          <mxGeometry y="26" width="210" height="26" as="geometry" />
        </mxCell>
        <mxCell id="2TAsUPGaxT-rRpuEJa2o-190" value="Use" style="endArrow=open;endSize=12;dashed=1;html=1;rounded=0;edgeStyle=elbowEdgeStyle;elbow=vertical;" edge="1" parent="1" source="2TAsUPGaxT-rRpuEJa2o-188" target="2TAsUPGaxT-rRpuEJa2o-116">
          <mxGeometry width="160" relative="1" as="geometry">
            <mxPoint x="900" y="799.0270270270273" as="sourcePoint" />
            <mxPoint x="1090" y="798.0000000000002" as="targetPoint" />
            <Array as="points">
              <mxPoint x="705" y="980" />
            </Array>
          </mxGeometry>
        </mxCell>
        <mxCell id="2TAsUPGaxT-rRpuEJa2o-191" value="Use" style="endArrow=open;endSize=12;dashed=1;html=1;rounded=0;" edge="1" parent="1" source="2TAsUPGaxT-rRpuEJa2o-188" target="2TAsUPGaxT-rRpuEJa2o-174">
          <mxGeometry width="160" relative="1" as="geometry">
            <mxPoint x="900" y="799.0270270270273" as="sourcePoint" />
            <mxPoint x="1090" y="798.0000000000002" as="targetPoint" />
          </mxGeometry>
        </mxCell>
        <mxCell id="2TAsUPGaxT-rRpuEJa2o-192" value="Color" style="rounded=0;whiteSpace=wrap;html=1;fontSize=12;fontStyle=1;fillColor=#e1d5e7;strokeColor=#9673a6;" vertex="1" parent="1">
          <mxGeometry x="260" y="464.5" width="110" height="29" as="geometry" />
        </mxCell>
        <mxCell id="2TAsUPGaxT-rRpuEJa2o-193" value="Use" style="endArrow=open;endSize=12;dashed=1;html=1;rounded=0;edgeStyle=elbowEdgeStyle;elbow=vertical;" edge="1" parent="1" source="2TAsUPGaxT-rRpuEJa2o-157" target="2TAsUPGaxT-rRpuEJa2o-192">
          <mxGeometry width="160" relative="1" as="geometry">
            <mxPoint x="570" y="420" as="sourcePoint" />
            <mxPoint x="570" y="357" as="targetPoint" />
            <Array as="points">
              <mxPoint x="460" y="480" />
              <mxPoint x="570" y="400" />
              <mxPoint x="580" y="400" />
              <mxPoint x="600" y="400" />
              <mxPoint x="670" y="700" />
            </Array>
          </mxGeometry>
        </mxCell>
        <mxCell id="2TAsUPGaxT-rRpuEJa2o-194" value="Model" style="text;html=1;strokeColor=#9673a6;fillColor=#e1d5e7;align=center;verticalAlign=middle;whiteSpace=wrap;rounded=0;fontStyle=1;fontSize=20;horizontal=0;" vertex="1" parent="1">
          <mxGeometry x="90" y="230" width="40" height="670" as="geometry" />
        </mxCell>
        <mxCell id="2TAsUPGaxT-rRpuEJa2o-195" value="Controller" style="text;html=1;strokeColor=#6c8ebf;fillColor=#dae8fc;align=center;verticalAlign=middle;whiteSpace=wrap;rounded=0;fontStyle=1;fontSize=20;horizontal=0;" vertex="1" parent="1">
          <mxGeometry x="90" y="914" width="40" height="266" as="geometry" />
        </mxCell>
        <mxCell id="2TAsUPGaxT-rRpuEJa2o-196" value="View" style="text;html=1;strokeColor=#d6b656;fillColor=#fff2cc;align=center;verticalAlign=middle;whiteSpace=wrap;rounded=0;fontStyle=1;fontSize=20;horizontal=0;" vertex="1" parent="1">
          <mxGeometry x="90" y="1200" width="40" height="350" as="geometry" />
        </mxCell>
        <mxCell id="2TAsUPGaxT-rRpuEJa2o-197" value="Rotation" style="swimlane;fontStyle=1;align=center;verticalAlign=top;childLayout=stackLayout;horizontal=1;startSize=26;horizontalStack=0;resizeParent=1;resizeLast=0;collapsible=1;marginBottom=0;rounded=0;shadow=0;strokeWidth=1;fillColor=#e1d5e7;strokeColor=#9673a6;" vertex="1" parent="1">
          <mxGeometry x="260" y="814" width="160" height="138" as="geometry">
            <mxRectangle x="340" y="380" width="170" height="26" as="alternateBounds" />
          </mxGeometry>
        </mxCell>
        <mxCell id="2TAsUPGaxT-rRpuEJa2o-198" value="+ DEGREE_0" style="text;align=left;verticalAlign=top;spacingLeft=4;spacingRight=4;overflow=hidden;rotatable=0;points=[[0,0.5],[1,0.5]];portConstraint=eastwest;" vertex="1" parent="2TAsUPGaxT-rRpuEJa2o-197">
          <mxGeometry y="26" width="160" height="26" as="geometry" />
        </mxCell>
        <mxCell id="2TAsUPGaxT-rRpuEJa2o-199" value="+ DEGREE_90" style="text;strokeColor=none;fillColor=none;align=left;verticalAlign=top;spacingLeft=4;spacingRight=4;overflow=hidden;rotatable=0;points=[[0,0.5],[1,0.5]];portConstraint=eastwest;" vertex="1" parent="2TAsUPGaxT-rRpuEJa2o-197">
          <mxGeometry y="52" width="160" height="26" as="geometry" />
        </mxCell>
        <mxCell id="2TAsUPGaxT-rRpuEJa2o-200" value="+ DEGREE_180" style="text;strokeColor=none;fillColor=none;align=left;verticalAlign=top;spacingLeft=4;spacingRight=4;overflow=hidden;rotatable=0;points=[[0,0.5],[1,0.5]];portConstraint=eastwest;" vertex="1" parent="2TAsUPGaxT-rRpuEJa2o-197">
          <mxGeometry y="78" width="160" height="26" as="geometry" />
        </mxCell>
        <mxCell id="2TAsUPGaxT-rRpuEJa2o-201" value="+ DEGREE_270" style="text;strokeColor=none;fillColor=none;align=left;verticalAlign=top;spacingLeft=4;spacingRight=4;overflow=hidden;rotatable=0;points=[[0,0.5],[1,0.5]];portConstraint=eastwest;" vertex="1" parent="2TAsUPGaxT-rRpuEJa2o-197">
          <mxGeometry y="104" width="160" height="26" as="geometry" />
        </mxCell>
        <mxCell id="2TAsUPGaxT-rRpuEJa2o-202" value="Use" style="endArrow=open;endSize=12;dashed=1;html=1;rounded=0;edgeStyle=elbowEdgeStyle;elbow=vertical;" edge="1" parent="1" source="2TAsUPGaxT-rRpuEJa2o-116" target="2TAsUPGaxT-rRpuEJa2o-197">
          <mxGeometry width="160" relative="1" as="geometry">
            <mxPoint x="540" y="710" as="sourcePoint" />
            <mxPoint x="430" y="710" as="targetPoint" />
            <Array as="points">
              <mxPoint x="450" y="870" />
              <mxPoint x="440" y="710" />
              <mxPoint x="1040" y="660" />
            </Array>
          </mxGeometry>
        </mxCell>
        <mxCell id="2TAsUPGaxT-rRpuEJa2o-203" value="Size" style="rounded=0;whiteSpace=wrap;html=1;fontSize=12;fontStyle=1;fillColor=#e1d5e7;strokeColor=#9673a6;" vertex="1" parent="1">
          <mxGeometry x="930" y="485.07" width="110" height="29" as="geometry" />
        </mxCell>
        <mxCell id="2TAsUPGaxT-rRpuEJa2o-204" value="Use" style="endArrow=open;endSize=12;dashed=1;html=1;rounded=0;edgeStyle=elbowEdgeStyle;elbow=vertical;" edge="1" parent="1" source="2TAsUPGaxT-rRpuEJa2o-104" target="2TAsUPGaxT-rRpuEJa2o-203">
          <mxGeometry width="160" relative="1" as="geometry">
            <mxPoint x="490" y="490" as="sourcePoint" />
            <mxPoint x="380" y="490" as="targetPoint" />
            <Array as="points">
              <mxPoint x="910" y="500" />
              <mxPoint x="470" y="490" />
              <mxPoint x="580" y="410" />
              <mxPoint x="590" y="410" />
              <mxPoint x="610" y="410" />
              <mxPoint x="680" y="710" />
            </Array>
          </mxGeometry>
        </mxCell>
        <mxCell id="2TAsUPGaxT-rRpuEJa2o-205" value="&lt;&lt;RenderData&gt;&gt;" style="swimlane;fontStyle=2;align=center;verticalAlign=top;childLayout=stackLayout;horizontal=1;startSize=26;horizontalStack=0;resizeParent=1;resizeLast=0;collapsible=1;marginBottom=0;rounded=0;shadow=0;strokeWidth=1;fillColor=#fff2cc;strokeColor=#d6b656;" vertex="1" parent="1">
          <mxGeometry x="880" y="1240" width="250" height="77.28" as="geometry">
            <mxRectangle x="550" y="140" width="160" height="26" as="alternateBounds" />
          </mxGeometry>
        </mxCell>
        <mxCell id="2TAsUPGaxT-rRpuEJa2o-206" value="+ getFieldColor(Position): Color" style="text;strokeColor=none;fillColor=none;align=left;verticalAlign=top;spacingLeft=4;spacingRight=4;overflow=hidden;rotatable=0;points=[[0,0.5],[1,0.5]];portConstraint=eastwest;" vertex="1" parent="2TAsUPGaxT-rRpuEJa2o-205">
          <mxGeometry y="26" width="250" height="26" as="geometry" />
        </mxCell>
        <mxCell id="2TAsUPGaxT-rRpuEJa2o-207" value="" style="endArrow=block;dashed=1;endFill=0;endSize=12;html=1;rounded=0;fontSize=12;elbow=vertical;jumpStyle=gap;jumpSize=15;edgeStyle=elbowEdgeStyle;" edge="1" parent="1" source="2TAsUPGaxT-rRpuEJa2o-127" target="2TAsUPGaxT-rRpuEJa2o-205">
          <mxGeometry width="160" relative="1" as="geometry">
            <mxPoint x="920" y="1440" as="sourcePoint" />
            <mxPoint x="790" y="1350" as="targetPoint" />
            <Array as="points">
              <mxPoint x="860" y="980" />
              <mxPoint x="1000" y="1040" />
              <mxPoint x="920" y="950" />
              <mxPoint x="900" y="970" />
              <mxPoint x="1000" y="1080" />
              <mxPoint x="950" y="1080" />
            </Array>
          </mxGeometry>
        </mxCell>
        <mxCell id="2TAsUPGaxT-rRpuEJa2o-208" value="Use" style="endArrow=open;endSize=12;dashed=1;html=1;rounded=0;exitX=1;exitY=0.5;exitDx=0;exitDy=0;" edge="1" parent="1" source="2TAsUPGaxT-rRpuEJa2o-175" target="2TAsUPGaxT-rRpuEJa2o-205">
          <mxGeometry width="160" relative="1" as="geometry">
            <mxPoint x="715" y="1110" as="sourcePoint" />
            <mxPoint x="715" y="1250" as="targetPoint" />
          </mxGeometry>
        </mxCell>
      </root>
    </mxGraphModel>
  </diagram>
</mxfile>
